<?xml version="1.0" encoding="UTF-8" standalone="no"?>
<!DOCTYPE svg PUBLIC "-//W3C//DTD SVG 1.1//EN"
 "http://www.w3.org/Graphics/SVG/1.1/DTD/svg11.dtd">
<!-- Generated by graphviz version 8.0.2 (20230410.1723)
 -->
<!-- Title: G Pages: 1 -->
<svg width="529pt" height="205pt"
 viewBox="0.00 0.00 529.20 205.41" xmlns="http://www.w3.org/2000/svg" xmlns:xlink="http://www.w3.org/1999/xlink">
<g id="graph0" class="graph" transform="scale(1 1) rotate(0) translate(21.6 183.81)">
<title>G</title>
<polygon fill="#111111" stroke="none" points="-21.6,21.6 -21.6,-183.81 507.6,-183.81 507.6,21.6 -21.6,21.6"/>
<!-- app.js -->
<g id="node1" class="node">
<title>app.js</title>
<path fill="none" stroke="#c6c5fe" d="M47.33,-103C47.33,-103 7.67,-103 7.67,-103 3.83,-103 0,-99.17 0,-95.33 0,-95.33 0,-87.67 0,-87.67 0,-83.83 3.83,-80 7.67,-80 7.67,-80 47.33,-80 47.33,-80 51.17,-80 55,-83.83 55,-87.67 55,-87.67 55,-95.33 55,-95.33 55,-99.17 51.17,-103 47.33,-103"/>
<text text-anchor="middle" x="27.5" y="-87.8" font-family="Arial" font-size="14.00" fill="#c6c5fe">app.js</text>
</g>
<!-- ballCollision.js -->
<g id="node2" class="node">
<title>ballCollision.js</title>
<path fill="none" stroke="#c6c5fe" d="M194.33,-103C194.33,-103 102.67,-103 102.67,-103 98.83,-103 95,-99.17 95,-95.33 95,-95.33 95,-87.67 95,-87.67 95,-83.83 98.83,-80 102.67,-80 102.67,-80 194.33,-80 194.33,-80 198.17,-80 202,-83.83 202,-87.67 202,-87.67 202,-95.33 202,-95.33 202,-99.17 198.17,-103 194.33,-103"/>
<text text-anchor="middle" x="148.5" y="-87.8" font-family="Arial" font-size="14.00" fill="#c6c5fe">ballCollision.js</text>
</g>
<!-- app.js&#45;&gt;ballCollision.js -->
<g id="edge1" class="edge">
<title>app.js&#45;&gt;ballCollision.js</title>
<path fill="none" stroke="#757575" d="M55.21,-91.5C63.76,-91.5 73.63,-91.5 83.67,-91.5"/>
<polygon fill="#757575" stroke="#757575" points="83.57,-95 93.57,-91.5 83.57,-88 83.57,-95"/>
</g>
<!-- gameElement.js -->
<g id="node3" class="node">
<title>gameElement.js</title>
<path fill="none" stroke="#cfffac" d="M478.33,-143C478.33,-143 374.67,-143 374.67,-143 370.83,-143 367,-139.17 367,-135.33 367,-135.33 367,-127.67 367,-127.67 367,-123.83 370.83,-120 374.67,-120 374.67,-120 478.33,-120 478.33,-120 482.17,-120 486,-123.83 486,-127.67 486,-127.67 486,-135.33 486,-135.33 486,-139.17 482.17,-143 478.33,-143"/>
<text text-anchor="middle" x="426.5" y="-127.8" font-family="Arial" font-size="14.00" fill="#cfffac">gameElement.js</text>
</g>
<!-- app.js&#45;&gt;gameElement.js -->
<g id="edge2" class="edge">
<title>app.js&#45;&gt;gameElement.js</title>
<path fill="none" stroke="#757575" d="M41.85,-103.21C53.85,-113.03 72.39,-126.53 91,-133.5 191.2,-171.04 224.64,-164.18 331,-152.5 343.92,-151.08 357.66,-148.6 370.54,-145.84"/>
<polygon fill="#757575" stroke="#757575" points="371.14,-149.06 380.13,-143.46 369.6,-142.23 371.14,-149.06"/>
</g>
<!-- gameObj.js -->
<g id="node4" class="node">
<title>gameObj.js</title>
<path fill="none" stroke="#c6c5fe" d="M323.33,-143C323.33,-143 249.67,-143 249.67,-143 245.83,-143 242,-139.17 242,-135.33 242,-135.33 242,-127.67 242,-127.67 242,-123.83 245.83,-120 249.67,-120 249.67,-120 323.33,-120 323.33,-120 327.17,-120 331,-123.83 331,-127.67 331,-127.67 331,-135.33 331,-135.33 331,-139.17 327.17,-143 323.33,-143"/>
<text text-anchor="middle" x="286.5" y="-127.8" font-family="Arial" font-size="14.00" fill="#c6c5fe">gameObj.js</text>
</g>
<!-- app.js&#45;&gt;gameObj.js -->
<g id="edge3" class="edge">
<title>app.js&#45;&gt;gameObj.js</title>
<path fill="none" stroke="#757575" d="M55.2,-101.96C66.14,-105.85 79.02,-109.94 91,-112.5 137.6,-122.47 191.62,-127.22 230.89,-129.48"/>
<polygon fill="#757575" stroke="#757575" points="230.63,-133.02 240.81,-130.06 231.01,-126.03 230.63,-133.02"/>
</g>
<!-- keyboardPad.js -->
<g id="node5" class="node">
<title>keyboardPad.js</title>
<path fill="none" stroke="#c6c5fe" d="M198.33,-23C198.33,-23 98.67,-23 98.67,-23 94.83,-23 91,-19.17 91,-15.33 91,-15.33 91,-7.67 91,-7.67 91,-3.83 94.83,0 98.67,0 98.67,0 198.33,0 198.33,0 202.17,0 206,-3.83 206,-7.67 206,-7.67 206,-15.33 206,-15.33 206,-19.17 202.17,-23 198.33,-23"/>
<text text-anchor="middle" x="148.5" y="-7.8" font-family="Arial" font-size="14.00" fill="#c6c5fe">keyboardPad.js</text>
</g>
<!-- app.js&#45;&gt;keyboardPad.js -->
<g id="edge4" class="edge">
<title>app.js&#45;&gt;keyboardPad.js</title>
<path fill="none" stroke="#757575" d="M40.14,-79.65C52.12,-67.91 71.71,-49.92 91,-37.5 96.23,-34.13 101.98,-30.96 107.73,-28.07"/>
<polygon fill="#757575" stroke="#757575" points="108.83,-30.95 116.35,-23.48 105.81,-24.63 108.83,-30.95"/>
</g>
<!-- pad.js -->
<g id="node6" class="node">
<title>pad.js</title>
<path fill="none" stroke="#cfffac" d="M306.33,-63C306.33,-63 266.67,-63 266.67,-63 262.83,-63 259,-59.17 259,-55.33 259,-55.33 259,-47.67 259,-47.67 259,-43.83 262.83,-40 266.67,-40 266.67,-40 306.33,-40 306.33,-40 310.17,-40 314,-43.83 314,-47.67 314,-47.67 314,-55.33 314,-55.33 314,-59.17 310.17,-63 306.33,-63"/>
<text text-anchor="middle" x="286.5" y="-47.8" font-family="Arial" font-size="14.00" fill="#cfffac">pad.js</text>
</g>
<!-- app.js&#45;&gt;pad.js -->
<g id="edge5" class="edge">
<title>app.js&#45;&gt;pad.js</title>
<path fill="none" stroke="#757575" d="M55.2,-81.04C66.14,-77.15 79.02,-73.06 91,-70.5 144.75,-59 208.36,-54.45 247.83,-52.65"/>
<polygon fill="#757575" stroke="#757575" points="247.94,-56.11 257.78,-52.2 247.64,-49.12 247.94,-56.11"/>
</g>
<!-- ballCollision.js&#45;&gt;gameElement.js -->
<g id="edge6" class="edge">
<title>ballCollision.js&#45;&gt;gameElement.js</title>
<path fill="none" stroke="#757575" d="M202.11,-95.91C238.44,-99.3 287.81,-104.57 331,-111.5 341.43,-113.17 352.45,-115.24 363.14,-117.39"/>
<polygon fill="#757575" stroke="#757575" points="362.18,-120.97 372.68,-119.57 363.6,-114.12 362.18,-120.97"/>
</g>
<!-- ballCollision.js&#45;&gt;gameObj.js -->
<g id="edge7" class="edge">
<title>ballCollision.js&#45;&gt;gameObj.js</title>
<path fill="none" stroke="#757575" d="M189.94,-103.39C203.92,-107.51 219.78,-112.17 234.51,-116.5"/>
<polygon fill="#757575" stroke="#757575" points="233.4,-120.12 243.98,-119.58 235.38,-113.4 233.4,-120.12"/>
</g>
<!-- ballCollision.js&#45;&gt;pad.js -->
<g id="edge8" class="edge">
<title>ballCollision.js&#45;&gt;pad.js</title>
<path fill="none" stroke="#757575" d="M189.94,-79.61C208.44,-74.17 230.22,-67.76 248.31,-62.44"/>
<polygon fill="#757575" stroke="#757575" points="249.15,-65.55 257.76,-59.37 247.17,-58.83 249.15,-65.55"/>
</g>
<!-- gameObj.js&#45;&gt;gameElement.js -->
<g id="edge9" class="edge">
<title>gameObj.js&#45;&gt;gameElement.js</title>
<path fill="none" stroke="#757575" d="M331.16,-131.5C339.02,-131.5 347.38,-131.5 355.75,-131.5"/>
<polygon fill="#757575" stroke="#757575" points="355.73,-135 365.73,-131.5 355.73,-128 355.73,-135"/>
</g>
<!-- keyboardPad.js&#45;&gt;pad.js -->
<g id="edge10" class="edge">
<title>keyboardPad.js&#45;&gt;pad.js</title>
<path fill="none" stroke="#757575" d="M189.94,-23.39C208.44,-28.83 230.22,-35.24 248.31,-40.56"/>
<polygon fill="#757575" stroke="#757575" points="247.17,-44.17 257.76,-43.63 249.15,-37.45 247.17,-44.17"/>
</g>
</g>
</svg>
